<svg xmlns="http://www.w3.org/2000/svg" xmlns:xlink="http://www.w3.org/1999/xlink" width="100%" height="100%" viewBox="0 0  1140 740" preserveAspectRatio="xMinYMin meet" ><rect id="svgEditorBackground" x="0" y="0" width="1140" height="740" style="fill: none; stroke: none;"/><path d="M-4,-2.5v5q0,2,4,2t4,-2v-5q0,2,-4,2t-4,-2q0,-2,4,-2t4,2t-4,2t-4,-2Z" style="fill:rosybrown; stroke:black; vector-effect:non-scaling-stroke;stroke-width:1px;" id="e1_shape" transform="matrix(29.6219 0 0 29.6219 246.812 357.12)"/><path d="M-4,-2.5v5q0,2,4,2t4,-2v-5q0,2,-4,2t-4,-2q0,-2,4,-2t4,2t-4,2t-4,-2Z" style="fill:rosybrown; stroke:black; vector-effect:non-scaling-stroke;stroke-width:1px;" id="e2_shape" transform="matrix(3.83377e-12 0 0 3.83377e-12 324.293 385.969)"/><path d="M-4,-2.5v5q0,2,4,2t4,-2v-5q0,2,-4,2t-4,-2q0,-2,4,-2t4,2t-4,2t-4,-2Z" style="fill:rosybrown; stroke:black; vector-effect:non-scaling-stroke;stroke-width:1px;" id="e3_shape" transform="matrix(10.1687 0 0 10.1687 333.136 345.183)"/></svg>